<svg version="1.1" xmlns="http://www.w3.org/2000/svg" xmlns:xlink="http://www.w3.org/1999/xlink" x="0px" y="0px" width="798.8px"
	 height="515.55px" viewBox="0 0 798.8 515.55" style="enable-background:new 0 0 798.8 515.55;" xml:space="preserve">
<style type="text/css">
	.st0{fill:#145380;stroke:#1A567A;stroke-width:9;stroke-miterlimit:10;}
	.st1{fill:#145380;}
	.st2{fill:#FFFFFF;}
	.st3{fill:#FFFFFF;stroke:#000000;stroke-miterlimit:10;}
	.st4{fill:#2083CC;stroke:#1A73AA;stroke-width:7;stroke-linejoin:round;stroke-miterlimit:10;}
	.st5{fill:#39A9E2;stroke:#1A73AA;stroke-width:7;stroke-miterlimit:10;}
	.st6{fill:none;stroke:#145380;stroke-width:20;stroke-linecap:round;stroke-linejoin:round;stroke-miterlimit:10;}
	.st7{fill:none;stroke:#204D72;stroke-width:9;stroke-linecap:round;stroke-linejoin:round;stroke-miterlimit:10;}
</style>
<defs>
</defs>
<path class="st0" d="M662.11,4.5v253.27c0,139.88-113.4,253.28-253.27,253.28c-139.88,0-253.28-113.4-253.28-253.28V4.5H662.11z"/>
<path class="st1" d="M639.89,26.72v231.05c0,127.61-103.45,231.06-231.05,231.06c-127.61,0-231.06-103.45-231.06-231.06V26.72
	H639.89z"/>
<rect x="177.78" y="27.72" class="st2" width="221.17" height="224.18"/>
<rect x="418.71" y="27.72" class="st2" width="221.17" height="224.18"/>
<path class="st2" d="M177.86,272.85c3.24,119.81,105.41,215.98,230.98,215.98c125.56,0,227.73-96.17,230.97-215.98L177.86,272.85z"
	/>
<path class="st3" d="M0,278.95"/>
<path class="st2" d="M785.15,434.52"/>
<g>
	<path class="st4" d="M740.88,405.83c0,0,30.2,31.71,54.2,50.3c6.84,1.42-144.68-10.02-171.1-21.05
		c-18.05-7.53-57.89-15.7-77.23-15.2c-32.81,0.86-92.63,0.9-125.43,0.12c-26.37-0.63-79.95-1.42-106.31-2.29
		c-22.74-0.75-66.54,10.05-88.22,16.47C156.2,455.08,80.46,463.23,23.7,470.42c24.65-19.36,57.38-60.11,57.38-60.11
		s-53-67.46-62.33-70.42c44.04,12.11,115.59,23.29,178.71,20.97c47.4-0.03,58.77-40.95,111.45-40.69
		c23.4,0.11,66.05,21.33,112.41,21.23c41.56-0.09,87.11-21.51,108.07-21.34c55.86,0.43,78.14,40.55,127.73,38.67
		c108.75-4.14,132.63-14.57,132.63-14.57L740.88,405.83z"/>
	<path class="st5" d="M646.12,462.15c-75.91-12.22-399.69-11.7-476.21,0.62c-7.5,1.21-14.6-3.78-16.02-11.25
		c-6.4-33.79-7.95-109.68,0.9-132.62c1.38-3.57,4.06-6.82,7.75-7.81c56.58-15.23,420.43-19.07,490.73-0.42
		c4.46,1.18,7.53,5.33,8.58,9.83c6.15,26.21,4.51,95.76,0.44,129.44C661.34,457.86,654.01,463.42,646.12,462.15z"/>
</g>
<g>
	<g>
		<path class="st2" d="M200.87,398.2c0,3.06-0.28,5.86-0.83,8.4c-0.56,2.54-1.51,4.71-2.86,6.49c-1.35,1.79-3.13,3.17-5.33,4.14
			s-4.94,1.46-8.19,1.46c-1.11,0-2.21-0.09-3.31-0.27c-1.09-0.18-2.1-0.42-3.01-0.71c-0.91-0.3-1.71-0.62-2.38-0.95
			c-0.68-0.34-1.12-0.63-1.34-0.86c-0.22-0.24-0.4-0.48-0.54-0.71c-0.14-0.24-0.26-0.53-0.36-0.86c-0.1-0.34-0.17-0.75-0.21-1.25
			c-0.04-0.5-0.06-1.1-0.06-1.82c0-0.87,0.03-1.6,0.09-2.17c0.06-0.58,0.17-1.03,0.33-1.37c0.16-0.34,0.35-0.58,0.57-0.71
			c0.22-0.14,0.49-0.21,0.8-0.21c0.32,0,0.72,0.15,1.22,0.45c0.5,0.3,1.09,0.63,1.79,0.98c0.69,0.36,1.5,0.68,2.41,0.98
			c0.91,0.3,1.99,0.45,3.22,0.45c1.35,0,2.5-0.17,3.46-0.51c0.95-0.34,1.75-0.96,2.38-1.88c0.63-0.91,1.11-2.17,1.43-3.78
			c0.32-1.61,0.48-3.7,0.48-6.28v-55.16c0-0.28,0.08-0.54,0.24-0.77c0.16-0.24,0.44-0.44,0.83-0.6c0.4-0.16,0.92-0.28,1.58-0.36
			c0.66-0.08,1.48-0.12,2.47-0.12c0.95,0,1.77,0.04,2.44,0.12c0.67,0.08,1.2,0.2,1.58,0.36c0.38,0.16,0.66,0.36,0.83,0.6
			s0.27,0.5,0.27,0.77V398.2z"/>
	</g>
	<g>
		<path class="st2" d="M276.7,416.07c0,0.32-0.08,0.6-0.24,0.83c-0.16,0.24-0.44,0.43-0.83,0.57c-0.4,0.14-0.92,0.26-1.58,0.36
			c-0.66,0.1-1.46,0.15-2.41,0.15c-1.03,0-1.87-0.05-2.5-0.15c-0.64-0.1-1.15-0.22-1.55-0.36c-0.4-0.14-0.68-0.33-0.83-0.57
			c-0.16-0.24-0.24-0.52-0.24-0.83v-34.19h-35.09v34.19c0,0.32-0.08,0.6-0.24,0.83c-0.16,0.24-0.44,0.43-0.83,0.57
			c-0.4,0.14-0.92,0.26-1.58,0.36c-0.66,0.1-1.48,0.15-2.47,0.15c-0.95,0-1.77-0.05-2.44-0.15c-0.68-0.1-1.21-0.22-1.61-0.36
			c-0.4-0.14-0.68-0.33-0.83-0.57c-0.16-0.24-0.24-0.52-0.24-0.83v-73.99c0-0.32,0.08-0.6,0.24-0.83c0.16-0.24,0.44-0.43,0.83-0.57
			c0.4-0.14,0.93-0.26,1.61-0.36c0.67-0.1,1.49-0.15,2.44-0.15c0.99,0,1.82,0.05,2.47,0.15c0.66,0.1,1.18,0.22,1.58,0.36
			c0.4,0.14,0.67,0.33,0.83,0.57c0.16,0.24,0.24,0.52,0.24,0.83v30.86h35.09v-30.86c0-0.32,0.08-0.6,0.24-0.83
			c0.16-0.24,0.44-0.43,0.83-0.57c0.4-0.14,0.91-0.26,1.55-0.36c0.63-0.1,1.47-0.15,2.5-0.15c0.95,0,1.76,0.05,2.41,0.15
			c0.66,0.1,1.18,0.22,1.58,0.36c0.4,0.14,0.67,0.33,0.83,0.57c0.16,0.24,0.24,0.52,0.24,0.83V416.07z"/>
	</g>
	<g>
		<path class="st2" d="M355.16,389.14c0,4.69-0.69,8.87-2.06,12.54c-1.37,3.67-3.33,6.78-5.87,9.32c-2.54,2.54-5.64,4.47-9.29,5.78
			c-3.65,1.31-7.8,1.97-12.45,1.97c-4.25,0-8.12-0.62-11.62-1.85c-3.5-1.23-6.49-3.05-9-5.45c-2.5-2.4-4.43-5.41-5.78-9.02
			c-1.35-3.61-2.03-7.78-2.03-12.51v-47.83c0-0.32,0.08-0.6,0.24-0.83c0.16-0.24,0.44-0.43,0.83-0.57c0.4-0.14,0.91-0.26,1.55-0.36
			c0.63-0.1,1.47-0.15,2.5-0.15c0.95,0,1.77,0.05,2.44,0.15c0.67,0.1,1.2,0.22,1.58,0.36c0.38,0.14,0.65,0.33,0.8,0.57
			c0.16,0.24,0.24,0.52,0.24,0.83v46.58c0,3.57,0.44,6.69,1.31,9.35c0.87,2.66,2.13,4.88,3.78,6.64c1.65,1.77,3.63,3.1,5.96,3.99
			s4.93,1.34,7.83,1.34c2.98,0,5.63-0.44,7.95-1.31c2.32-0.87,4.29-2.18,5.9-3.93c1.61-1.75,2.84-3.91,3.69-6.49
			c0.85-2.58,1.28-5.6,1.28-9.05v-47.12c0-0.32,0.08-0.6,0.24-0.83c0.16-0.24,0.44-0.43,0.83-0.57c0.4-0.14,0.92-0.26,1.58-0.36
			c0.66-0.1,1.48-0.15,2.47-0.15c0.95,0,1.76,0.05,2.41,0.15c0.66,0.1,1.17,0.22,1.55,0.36c0.38,0.14,0.66,0.33,0.83,0.57
			s0.27,0.52,0.27,0.83V389.14z"/>
	</g>
	<g>
		<path class="st2" d="M426.88,416.07c0,0.32-0.06,0.6-0.18,0.83s-0.38,0.44-0.77,0.6c-0.4,0.16-0.95,0.28-1.67,0.36
			c-0.71,0.08-1.67,0.12-2.86,0.12c-1.03,0-1.88-0.04-2.53-0.12c-0.66-0.08-1.18-0.21-1.58-0.39c-0.4-0.18-0.71-0.43-0.92-0.74
			c-0.22-0.32-0.41-0.71-0.57-1.19l-7.09-18.17c-0.83-2.06-1.7-3.96-2.59-5.69s-1.96-3.22-3.19-4.47c-1.23-1.25-2.68-2.22-4.35-2.92
			c-1.67-0.69-3.67-1.04-6.02-1.04h-6.85v32.82c0,0.32-0.09,0.6-0.27,0.83s-0.46,0.43-0.83,0.57c-0.38,0.14-0.89,0.26-1.55,0.36
			c-0.66,0.1-1.48,0.15-2.47,0.15c-0.99,0-1.82-0.05-2.47-0.15c-0.66-0.1-1.18-0.22-1.58-0.36c-0.4-0.14-0.68-0.33-0.83-0.57
			c-0.16-0.24-0.24-0.52-0.24-0.83V344.7c0-1.55,0.41-2.63,1.22-3.25c0.81-0.62,1.68-0.92,2.59-0.92h16.38
			c1.95,0,3.56,0.05,4.85,0.15c1.29,0.1,2.45,0.21,3.48,0.33c2.98,0.52,5.61,1.33,7.89,2.44c2.28,1.11,4.2,2.52,5.75,4.23
			c1.55,1.71,2.71,3.66,3.48,5.87s1.16,4.64,1.16,7.3c0,2.58-0.35,4.89-1.04,6.94c-0.7,2.05-1.7,3.85-3.01,5.42
			c-1.31,1.57-2.88,2.93-4.71,4.08c-1.83,1.15-3.87,2.13-6.14,2.92c1.27,0.56,2.42,1.26,3.46,2.11c1.03,0.85,2,1.88,2.89,3.07
			s1.74,2.56,2.53,4.11c0.79,1.55,1.59,3.3,2.38,5.24l6.91,16.98c0.56,1.43,0.91,2.43,1.07,3.01
			C426.8,415.3,426.88,415.75,426.88,416.07z M411.45,361.92c0-3.02-0.68-5.57-2.03-7.66c-1.35-2.08-3.61-3.58-6.79-4.5
			c-0.99-0.28-2.11-0.48-3.37-0.6s-2.89-0.18-4.91-0.18h-8.64v25.97h10.01c2.7,0,5.03-0.33,7-0.98s3.6-1.57,4.91-2.74
			c1.31-1.17,2.27-2.55,2.89-4.14C411.14,365.51,411.45,363.79,411.45,361.92z"/>
	</g>
	<g>
		<path class="st2" d="M498.48,351.02c0,0.75-0.04,1.42-0.12,2c-0.08,0.58-0.2,1.05-0.36,1.43c-0.16,0.38-0.36,0.65-0.6,0.8
			c-0.24,0.16-0.5,0.24-0.77,0.24c-0.48,0-1.27-0.38-2.38-1.13c-1.11-0.75-2.6-1.59-4.47-2.5c-1.87-0.91-4.1-1.75-6.7-2.5
			c-2.6-0.75-5.69-1.13-9.26-1.13c-4.25,0-8.06,0.77-11.44,2.32c-3.38,1.55-6.24,3.69-8.58,6.43c-2.34,2.74-4.14,6-5.39,9.77
			c-1.25,3.77-1.88,7.86-1.88,12.27c0,4.92,0.68,9.29,2.05,13.11s3.27,7.03,5.69,9.65c2.42,2.62,5.31,4.61,8.67,5.96
			c3.36,1.35,7.04,2.03,11.05,2.03c2.38,0,4.79-0.29,7.24-0.86c2.44-0.58,4.72-1.44,6.82-2.59v-22.46h-17.87
			c-0.68,0-1.18-0.34-1.52-1.01c-0.34-0.67-0.51-1.73-0.51-3.16c0-0.75,0.04-1.4,0.12-1.94c0.08-0.54,0.21-0.97,0.39-1.31
			c0.18-0.34,0.39-0.58,0.63-0.74c0.24-0.16,0.54-0.24,0.89-0.24h24.48c0.44,0,0.87,0.08,1.31,0.24c0.44,0.16,0.83,0.4,1.19,0.71
			c0.36,0.32,0.63,0.75,0.83,1.31c0.2,0.56,0.3,1.19,0.3,1.91v29.37c0,1.03-0.18,1.93-0.54,2.68c-0.36,0.75-1.11,1.42-2.26,2
			c-1.15,0.58-2.64,1.2-4.47,1.88c-1.83,0.68-3.71,1.25-5.66,1.73c-1.95,0.48-3.91,0.83-5.9,1.07c-1.99,0.24-3.95,0.36-5.9,0.36
			c-5.96,0-11.28-0.92-15.96-2.77c-4.69-1.85-8.65-4.48-11.88-7.89c-3.24-3.42-5.71-7.51-7.42-12.27
			c-1.71-4.77-2.56-10.09-2.56-15.96c0-6.12,0.92-11.66,2.77-16.62c1.85-4.96,4.45-9.19,7.8-12.69c3.36-3.49,7.39-6.21,12.09-8.13
			c4.71-1.93,9.92-2.89,15.64-2.89c2.94,0,5.7,0.26,8.28,0.77c2.58,0.52,4.87,1.12,6.88,1.82c2,0.7,3.69,1.45,5.06,2.26
			c1.37,0.81,2.31,1.48,2.83,2c0.52,0.52,0.87,1.11,1.07,1.79C498.38,348.78,498.48,349.75,498.48,351.02z"/>
	</g>
	<g>
		<path class="st2" d="M560.44,413.39c0,0.71-0.04,1.34-0.12,1.88c-0.08,0.54-0.22,0.98-0.42,1.34c-0.2,0.36-0.43,0.62-0.69,0.77
			c-0.26,0.16-0.55,0.24-0.86,0.24h-36.99c-0.91,0-1.78-0.31-2.59-0.92c-0.81-0.62-1.22-1.7-1.22-3.25V344.7
			c0-1.55,0.41-2.63,1.22-3.25c0.81-0.62,1.68-0.92,2.59-0.92h36.58c0.32,0,0.6,0.08,0.86,0.24c0.26,0.16,0.47,0.42,0.63,0.77
			c0.16,0.36,0.29,0.8,0.39,1.34c0.1,0.54,0.15,1.2,0.15,2c0,0.71-0.05,1.34-0.15,1.88c-0.1,0.54-0.23,0.97-0.39,1.31
			c-0.16,0.34-0.37,0.59-0.63,0.75c-0.26,0.16-0.55,0.24-0.86,0.24h-30.14v24.19h25.85c0.32,0,0.6,0.09,0.86,0.27
			c0.26,0.18,0.48,0.43,0.66,0.75c0.18,0.32,0.31,0.75,0.39,1.31c0.08,0.56,0.12,1.21,0.12,1.97c0,0.71-0.04,1.33-0.12,1.85
			c-0.08,0.52-0.21,0.93-0.39,1.25c-0.18,0.32-0.4,0.55-0.66,0.68c-0.26,0.14-0.55,0.21-0.86,0.21h-25.85v27.58h30.56
			c0.32,0,0.6,0.08,0.86,0.24c0.26,0.16,0.49,0.41,0.69,0.74c0.2,0.34,0.34,0.77,0.42,1.31
			C560.4,411.93,560.44,412.59,560.44,413.39z"/>
	</g>
	<g>
		<path class="st2" d="M635.38,413.39c0,0.79-0.13,1.47-0.4,2.03c-0.27,0.56-0.62,1.01-1.05,1.37c-0.43,0.36-0.91,0.62-1.45,0.77
			s-1.07,0.24-1.6,0.24h-3.39c-1.07,0-2-0.11-2.8-0.33s-1.56-0.62-2.28-1.19c-0.72-0.58-1.44-1.36-2.16-2.35
			c-0.72-0.99-1.48-2.26-2.29-3.81l-23.52-43.84c-1.23-2.26-2.47-4.64-3.72-7.12c-1.25-2.48-2.41-4.89-3.49-7.24h-0.12
			c0.08,2.86,0.14,5.78,0.18,8.76c0.04,2.98,0.06,5.94,0.06,8.88v46.52c0,0.28-0.08,0.55-0.25,0.8c-0.17,0.26-0.45,0.46-0.85,0.6
			c-0.4,0.14-0.92,0.26-1.57,0.36c-0.65,0.1-1.48,0.15-2.48,0.15c-1.01,0-1.83-0.05-2.48-0.15c-0.65-0.1-1.16-0.22-1.54-0.36
			c-0.38-0.14-0.65-0.34-0.82-0.6c-0.17-0.26-0.25-0.53-0.25-0.8v-71.13c0-1.59,0.45-2.72,1.35-3.4c0.9-0.67,1.89-1.01,2.95-1.01
			h5.04c1.19,0,2.18,0.1,2.98,0.3c0.8,0.2,1.52,0.53,2.15,0.98c0.63,0.46,1.25,1.09,1.84,1.91c0.59,0.81,1.22,1.84,1.87,3.07
			l18.08,33.84c1.11,2.07,2.19,4.08,3.22,6.05c1.04,1.97,2.03,3.9,2.99,5.81s1.91,3.78,2.85,5.63c0.94,1.85,1.87,3.7,2.79,5.57h0.06
			c-0.08-3.14-0.13-6.4-0.15-9.8c-0.02-3.4-0.03-6.66-0.03-9.8v-41.82c0-0.28,0.08-0.54,0.25-0.77c0.17-0.24,0.45-0.45,0.85-0.63
			s0.92-0.31,1.57-0.39c0.65-0.08,1.5-0.12,2.55-0.12c0.92,0,1.72,0.04,2.39,0.12c0.67,0.08,1.19,0.21,1.57,0.39
			c0.38,0.18,0.65,0.39,0.82,0.63c0.17,0.24,0.25,0.5,0.25,0.77V413.39z"/>
	</g>
</g>
<polyline class="st6" points="240.99,99.24 192.52,145.72 239.52,185.32 "/>
<polyline class="st6" points="336.62,99.24 385.09,145.72 338.08,185.32 "/>
<line class="st6" x1="316.37" y1="71.01" x2="280.46" y2="213.56"/>
<path class="st7" d="M480.42,232.97c-14.77,3.53-35.28-4.11-26.74-23.36c12.78-23.66,42.66-25.21,57.09-20.18
	c11.77,4.1,16.8,25.56,36.69,31.55c14.89,3.83,38.9,2.77,51.56-10.91c18.52-23.62-0.29-32.8-7.38-35.08"/>
<g>
	
		<rect x="464.26" y="127.07" transform="matrix(0.5017 -0.865 0.865 0.5017 148.7988 533.626)" class="st1" width="146.7" height="21.16"/>
	<polygon class="st1" points="486.85,204.07 505.16,214.69 480.31,236.44 	"/>
	<path class="st1" d="M570.13,60.5l18.3,10.62c0,0,9.12-15.72,11.49-19.81c2.71-13.78-7.49-20.02-18.3-10.62L570.13,60.5z"/>
</g>
</svg>
